<?xml version="1.0" encoding="utf-8"?>
<!-- Generator: Adobe Illustrator 15.0.0, SVG Export Plug-In . SVG Version: 6.00 Build 0)  -->
<!DOCTYPE svg PUBLIC "-//W3C//DTD SVG 1.1//EN" "http://www.w3.org/Graphics/SVG/1.1/DTD/svg11.dtd">
<svg version="1.1" id="Layer_1" xmlns="http://www.w3.org/2000/svg" xmlns:xlink="http://www.w3.org/1999/xlink" x="0px" y="0px"
	 width="28px" height="110px" viewBox="-488.869 -193.417 28 110" enable-background="new -488.869 -193.417 28 110"
	 xml:space="preserve">
<text transform="matrix(1 0 0 1 -76.4812 19.0811)" fill="#0000FF" font-family="'Helvetica-Bold'" font-size="14">I</text>
<text transform="matrix(1 0 0 1 -79.5911 36.0811)" fill="#0000FF" font-family="'Helvetica-Bold'" font-size="14">N</text>
<text transform="matrix(1 0 0 1 -79.2053 53.0815)" fill="#0000FF" font-family="'Helvetica-Bold'" font-size="14">S</text>
<text transform="matrix(1 0 0 1 -78.8123 70.0815)" fill="#0000FF" font-family="'Helvetica-Bold'" font-size="14">T</text>
<text transform="matrix(1 0 0 1 -79.5911 87.0815)" fill="#0000FF" font-family="'Helvetica-Bold'" font-size="14">A</text>
<rect x="-3.703" y="142.167" fill="none" width="34.667" height="95.332"/>
<rect x="-117.036" y="40.167" fill="none" width="26.667" height="107.333"/>
<g>
	<rect x="-87.87" y="1" fill="none" stroke="#0000FF" stroke-width="2" stroke-miterlimit="10" width="26" height="91.333"/>
	<rect x="-80.422" y="5.667" fill="none" width="13.333" height="82"/>
</g>
<g>
	<text transform="matrix(0.9039 0 0 1 69.4646 21.3335)" fill="#0000FF" font-family="'Karla-Bold'" font-size="14">E</text>
	<text transform="matrix(0.9039 0 0 1 68.4138 38.3335)" fill="#0000FF" font-family="'Karla-Bold'" font-size="14">M</text>
	<text transform="matrix(0.9039 0 0 1 69.116 55.3335)" fill="#0000FF" font-family="'Karla-Bold'" font-size="14">A</text>
	<text transform="matrix(0.9039 0 0 1 71.9275 72.3335)" fill="#0000FF" font-family="'Karla-Bold'" font-size="14">I</text>
	<text transform="matrix(0.9039 0 0 1 69.8201 89.3335)" fill="#0000FF" font-family="'Karla-Bold'" font-size="14">L</text>
	<rect x="61.054" y="1" fill="none" width="25.262" height="98.168"/>
</g>
<text transform="matrix(1 0 0 1 239.7947 -68.9189)" fill="#0000FF" font-family="'Karla-Bold'" font-size="14">I</text>
<text transform="matrix(1 0 0 1 236.6853 -51.9189)" fill="#0000FF" font-family="'Karla-Bold'" font-size="14">N</text>
<text transform="matrix(1 0 0 1 237.071 -34.9189)" fill="#0000FF" font-family="'Karla-Bold'" font-size="14">S</text>
<text transform="matrix(1 0 0 1 237.4646 -17.9189)" fill="#0000FF" font-family="'Karla-Bold'" font-size="14">T</text>
<text transform="matrix(1 0 0 1 236.6853 -0.9189)" fill="#0000FF" font-family="'Karla-Bold'" font-size="14">A</text>
<g>
	<text transform="matrix(1 0 0 1 116.1853 21.834)" fill="#0000FF" font-family="'Karla-Bold'" font-size="14">I</text>
	<text transform="matrix(1 0 0 1 113.0759 38.834)" fill="#0000FF" font-family="'Karla-Bold'" font-size="14">N</text>
	<text transform="matrix(1 0 0 1 113.4617 55.8335)" fill="#0000FF" font-family="'Karla-Bold'" font-size="14">S</text>
	<text transform="matrix(1 0 0 1 113.8552 72.8335)" fill="#0000FF" font-family="'Karla-Bold'" font-size="14">T</text>
	<text transform="matrix(1 0 0 1 113.0759 89.8335)" fill="#0000FF" font-family="'Karla-Bold'" font-size="14">A</text>
	<rect x="105.131" y="1.5" fill="none" width="26" height="97.167"/>
</g>
<rect x="-519.869" y="-192.417" fill="none" stroke="#0000FF" stroke-width="2" stroke-miterlimit="10" width="26" height="108"/>
<rect x="-524.869" y="-181.417" fill="none" width="36" height="181.417"/>
<text transform="matrix(0.9039 0 0 1 -509.2048 -169.7549)"><tspan x="0" y="0" fill="#0000FF" font-family="'Karla-Bold'" font-size="17">I </tspan><tspan x="-3.511" y="18" fill="#0000FF" font-family="'Karla-Bold'" font-size="17">N </tspan><tspan x="-2.839" y="36" fill="#0000FF" font-family="'Karla-Bold'" font-size="17">S </tspan><tspan x="-1.938" y="54" fill="#0000FF" font-family="'Karla-Bold'" font-size="17">T </tspan><tspan x="-2.737" y="72" fill="#0000FF" font-family="'Karla-Bold'" font-size="17">A</tspan></text>
<rect x="-492.869" y="-181.417" fill="none" width="36" height="90.708"/>
<text transform="matrix(0.8203 0 0 1 -478.9553 -169.7549)"><tspan x="0" y="0" fill="#0000FF" font-family="'Karla-Bold'" font-size="17">E </tspan><tspan x="-2.448" y="18" fill="#0000FF" font-family="'Karla-Bold'" font-size="17">M </tspan><tspan x="-0.34" y="36" fill="#0000FF" font-family="'Karla-Bold'" font-size="17">A </tspan><tspan x="2.397" y="54" fill="#0000FF" font-family="'Karla-Bold'" font-size="17">I </tspan><tspan x="0.782" y="72" fill="#0000FF" font-family="'Karla-Bold'" font-size="17">L </tspan></text>
<rect x="-487.869" y="-191.95" fill="none" stroke="#0000FF" stroke-width="2" stroke-miterlimit="10" width="26" height="107.533"/>
<rect x="-519.869" y="-20.918" fill="none" stroke="#FE0000" stroke-width="2" stroke-miterlimit="10" width="26" height="108"/>
<rect x="-461.869" y="-20.918" fill="none" stroke="#FE0000" stroke-width="2" stroke-miterlimit="10" width="26" height="108"/>
<rect x="-524.869" y="-11.417" fill="none" width="36" height="181.416"/>
<text transform="matrix(0.9039 0 0 1 -509.2048 0.2451)"><tspan x="0" y="0" fill="#FE0000" font-family="'Karla-Bold'" font-size="17">I </tspan><tspan x="-3.511" y="18" fill="#FE0000" font-family="'Karla-Bold'" font-size="17">N </tspan><tspan x="-2.839" y="36" fill="#FE0000" font-family="'Karla-Bold'" font-size="17">S </tspan><tspan x="-1.938" y="54" fill="#FE0000" font-family="'Karla-Bold'" font-size="17">T </tspan><tspan x="-2.737" y="72" fill="#FE0000" font-family="'Karla-Bold'" font-size="17">A</tspan></text>
<rect x="-466.869" y="-9.273" fill="none" width="36" height="90.708"/>
<text transform="matrix(0.8203 0 0 1 -452.9553 2.3887)"><tspan x="0" y="0" fill="#FE0000" font-family="'Karla-Bold'" font-size="17">E </tspan><tspan x="-2.448" y="18" fill="#FE0000" font-family="'Karla-Bold'" font-size="17">M </tspan><tspan x="-0.34" y="36" fill="#FE0000" font-family="'Karla-Bold'" font-size="17">A </tspan><tspan x="2.397" y="54" fill="#FE0000" font-family="'Karla-Bold'" font-size="17">I </tspan><tspan x="0.782" y="72" fill="#FE0000" font-family="'Karla-Bold'" font-size="17">L </tspan></text>
</svg>
